<svg width="99" height="80" viewBox="0 0 99 80" fill="none" xmlns="http://www.w3.org/2000/svg">
<path d="M42.5 35C41.9696 35 41.4609 34.7893 41.0858 34.4142C40.7107 34.0391 40.5 33.5304 40.5 33C40.5 32.4696 40.7107 31.9609 41.0858 31.5858C41.4609 31.2107 41.9696 31 42.5 31C43.0304 31 43.5391 31.2107 43.9142 31.5858C44.2893 31.9609 44.5 32.4696 44.5 33M42.5 35C43.0304 35 43.5391 34.7893 43.9142 34.4142C44.2893 34.0391 44.5 33.5304 44.5 33M42.5 35V45M44.5 33H54.5M54.5 33C54.5 33.5304 54.7107 34.0391 55.0858 34.4142C55.4609 34.7893 55.9696 35 56.5 35M54.5 33C54.5 32.4696 54.7107 31.9609 55.0858 31.5858C55.4609 31.2107 55.9696 31 56.5 31C57.0304 31 57.5391 31.2107 57.9142 31.5858C58.2893 31.9609 58.5 32.4696 58.5 33C58.5 33.5304 58.2893 34.0391 57.9142 34.4142C57.5391 34.7893 57.0304 35 56.5 35M56.5 35V45M44.5 47C44.5 47.5304 44.2893 48.0391 43.9142 48.4142C43.5391 48.7893 43.0304 49 42.5 49C41.9696 49 41.4609 48.7893 41.0858 48.4142C40.7107 48.0391 40.5 47.5304 40.5 47C40.5 46.4696 40.7107 45.9609 41.0858 45.5858C41.4609 45.2107 41.9696 45 42.5 45M44.5 47C44.5 46.4696 44.2893 45.9609 43.9142 45.5858C43.5391 45.2107 43.0304 45 42.5 45M44.5 47H54.5M54.5 47C54.5 47.5304 54.7107 48.0391 55.0858 48.4142C55.4609 48.7893 55.9696 49 56.5 49C57.0304 49 57.5391 48.7893 57.9142 48.4142C58.2893 48.0391 58.5 47.5304 58.5 47C58.5 46.4696 58.2893 45.9609 57.9142 45.5858C57.5391 45.2107 57.0304 45 56.5 45M54.5 47C54.5 46.4696 54.7107 45.9609 55.0858 45.5858C55.4609 45.2107 55.9696 45 56.5 45M47.5 38H51.5M49.5 42V38" stroke="#CACACC" stroke-width="2" stroke-linecap="round" stroke-linejoin="round"/>
</svg>
