<svg width="99" height="80" viewBox="0 0 99 80" fill="none" xmlns="http://www.w3.org/2000/svg">
<path d="M45 44.5L54 35.5M41.5 46C41.5 46.5304 41.7107 47.0391 42.0858 47.4142C42.4609 47.7893 42.9696 48 43.5 48C44.0304 48 44.5391 47.7893 44.9142 47.4142C45.2893 47.0391 45.5 46.5304 45.5 46C45.5 45.4696 45.2893 44.9609 44.9142 44.5858C44.5391 44.2107 44.0304 44 43.5 44C42.9696 44 42.4609 44.2107 42.0858 44.5858C41.7107 44.9609 41.5 45.4696 41.5 46ZM53.5 34C53.5 34.5304 53.7107 35.0391 54.0858 35.4142C54.4609 35.7893 54.9696 36 55.5 36C56.0304 36 56.5391 35.7893 56.9142 35.4142C57.2893 35.0391 57.5 34.5304 57.5 34C57.5 33.4696 57.2893 32.9609 56.9142 32.5858C56.5391 32.2107 56.0304 32 55.5 32C54.9696 32 54.4609 32.2107 54.0858 32.5858C53.7107 32.9609 53.5 33.4696 53.5 34Z" stroke="#CACACC" stroke-width="2" stroke-linecap="round" stroke-linejoin="round"/>
</svg>
