<svg width="99" height="80" viewBox="0 0 99 80" fill="none" xmlns="http://www.w3.org/2000/svg">
<path d="M47.5 39H43.5C43.2348 39 42.9804 38.8946 42.7929 38.7071C42.6054 38.5196 42.5 38.2652 42.5 38V35C42.5 34.7348 42.6054 34.4804 42.7929 34.2929C42.9804 34.1054 43.2348 34 43.5 34H46.5C46.7652 34 47.0196 34.1054 47.2071 34.2929C47.3946 34.4804 47.5 34.7348 47.5 35V41C47.5 43.667 46.167 45.333 43.5 46M56.5 39H52.5C52.2348 39 51.9804 38.8946 51.7929 38.7071C51.6054 38.5196 51.5 38.2652 51.5 38V35C51.5 34.7348 51.6054 34.4804 51.7929 34.2929C51.9804 34.1054 52.2348 34 52.5 34H55.5C55.7652 34 56.0196 34.1054 56.2071 34.2929C56.3946 34.4804 56.5 34.7348 56.5 35V41C56.5 43.667 55.167 45.333 52.5 46" stroke="#CACACC" stroke-width="2" stroke-linecap="round" stroke-linejoin="round"/>
</svg>
