<svg width="99" height="80" viewBox="0 0 99 80" fill="none" xmlns="http://www.w3.org/2000/svg">
<path d="M51.5 45H57.5M54.5 42V48M41.5 33C41.5 32.7348 41.6054 32.4804 41.7929 32.2929C41.9804 32.1054 42.2348 32 42.5 32H46.5C46.7652 32 47.0196 32.1054 47.2071 32.2929C47.3946 32.4804 47.5 32.7348 47.5 33V37C47.5 37.2652 47.3946 37.5196 47.2071 37.7071C47.0196 37.8946 46.7652 38 46.5 38H42.5C42.2348 38 41.9804 37.8946 41.7929 37.7071C41.6054 37.5196 41.5 37.2652 41.5 37V33ZM51.5 33C51.5 32.7348 51.6054 32.4804 51.7929 32.2929C51.9804 32.1054 52.2348 32 52.5 32H56.5C56.7652 32 57.0196 32.1054 57.2071 32.2929C57.3946 32.4804 57.5 32.7348 57.5 33V37C57.5 37.2652 57.3946 37.5196 57.2071 37.7071C57.0196 37.8946 56.7652 38 56.5 38H52.5C52.2348 38 51.9804 37.8946 51.7929 37.7071C51.6054 37.5196 51.5 37.2652 51.5 37V33ZM41.5 43C41.5 42.7348 41.6054 42.4804 41.7929 42.2929C41.9804 42.1054 42.2348 42 42.5 42H46.5C46.7652 42 47.0196 42.1054 47.2071 42.2929C47.3946 42.4804 47.5 42.7348 47.5 43V47C47.5 47.2652 47.3946 47.5196 47.2071 47.7071C47.0196 47.8946 46.7652 48 46.5 48H42.5C42.2348 48 41.9804 47.8946 41.7929 47.7071C41.6054 47.5196 41.5 47.2652 41.5 47V43Z" stroke="#CACACC" stroke-width="2" stroke-linecap="round" stroke-linejoin="round"/>
</svg>
