<svg width="99" height="80" viewBox="0 0 99 80" fill="none" xmlns="http://www.w3.org/2000/svg">
<path d="M33.5 35C33.5 34.4696 33.7107 33.9609 34.0858 33.5858C34.4609 33.2107 34.9696 33 35.5 33H49.5C50.0304 33 50.5391 33.2107 50.9142 33.5858C51.2893 33.9609 51.5 34.4696 51.5 35V45C51.5 45.5304 51.2893 46.0391 50.9142 46.4142C50.5391 46.7893 50.0304 47 49.5 47H35.5C34.9696 47 34.4609 46.7893 34.0858 46.4142C33.7107 46.0391 33.5 45.5304 33.5 45V35Z" stroke="#CACACC" stroke-width="2" stroke-linecap="round" stroke-linejoin="round"/>
<path d="M59.5 38.5L62.5 41.5L65.5 38.5" stroke="#CACACC" stroke-width="2" stroke-linecap="round" stroke-linejoin="round"/>
</svg>
