<svg width="99" height="80" viewBox="0 0 99 80" fill="none" xmlns="http://www.w3.org/2000/svg">
<g clip-path="url(#clip0_877_191822)">
<path d="M41.2887 41.752C40.6317 40.78 40.2607 39.674 40.2607 38.5C40.2607 34.634 44.2907 31.5 49.2607 31.5C54.2307 31.5 58.2607 34.634 58.2607 38.5C58.2607 42.366 54.2307 45.5 49.2607 45.5C47.3477 45.5 45.5747 45.036 44.1167 44.245M42.2607 45.5C41.7303 45.5 41.2216 45.2893 40.8465 44.9142C40.4715 44.5391 40.2607 44.0304 40.2607 43.5C40.2607 42.9696 40.4715 42.4609 40.8465 42.0858C41.2216 41.7107 41.7303 41.5 42.2607 41.5C42.7912 41.5 43.2999 41.7107 43.675 42.0858C44.05 42.4609 44.2607 42.9696 44.2607 43.5C44.2607 44.0304 44.05 44.5391 43.675 44.9142C43.2999 45.2893 42.7912 45.5 42.2607 45.5ZM42.2607 45.5C42.2607 46.92 42.5767 48.305 43.2607 49.5" stroke="#CACACC" stroke-width="2" stroke-linecap="round" stroke-linejoin="round"/>
</g>
<defs>
<clipPath id="clip0_877_191822">
<rect width="24" height="24" fill="white" transform="translate(37.5 28)"/>
</clipPath>
</defs>
</svg>
